# xmcd
#
# Track frame offsets:
#	150
#	17547
#	34739
#	52207
#	67138
#	83957
#	98190
#	119213
#	136390
#	152020
#	166231
#	179352
#	196020
#	211746
#	230765
#	249050
#	264893
#	283328
#	303460
#
# Disc length: 4263
#
# Revision: 2
# Processed by: cddbd v1.5.1PL0 Copyright (c) Steve Scherf et al.
# Submitted via: EasyCDDAExtractor 5.0.6
# Normalized: r1:DSETVAR1
#
DISCID=0e10a513
DTITLE=Various Artist - saloon tunes 64
DYEAR=1900
DGENRE=Country
TTITLE0=jackson, alan - It's 5 O'clock Somwhere   W Jimmy Buffet
TTITLE1=jewel, buddy - Help Pour Out The Rain Lacey's Song
TTITLE2=martin, brad - One Of Those Days
TTITLE3=prather, colt - Dash
TTITLE4=ruttan, deric - When You Come Around
TTITLE5=diamond rio - Wrinkles
TTITLE6=dixie chicks - Godspeed Sweet Dreams
TTITLE7=grand, gil - Run
TTITLE8=dawn, heather - Beautiful People
TTITLE9=vautour, j.r. - Addicted
TTITLE10=o'neal, jamie - Every Little Thing
TTITLE11=warren, jamie - Without You
TTITLE12=carson, jeff - I Can Only Imagine
TTITLE13=urban, keith - Who Wouldn't Wanna Be Me
TTITLE14=mcbride, martina - This One's For The Girls
TTITLE15=brandt, paul - Take It Off
TTITLE16=twain, shania - Forever And For Always
TTITLE17=austin, sherrie - Streets Of Heaven
TTITLE18=judd, wynonna - What The World Needs
EXTD=
EXTT0=
EXTT1=
EXTT2=
EXTT3=
EXTT4=
EXTT5=
EXTT6=
EXTT7=
EXTT8=
EXTT9=
EXTT10=
EXTT11=
EXTT12=
EXTT13=
EXTT14=
EXTT15=
EXTT16=
EXTT17=
EXTT18=
PLAYORDER=
